{"glyphs":{":":{"x_min":0,"x_max":245,"ha":245,"o":"m 62 59 q 62 83 79 100 q 96 118 121 118 q 147 118 165 100 q 183 83 183 59 q 183 34 165 17 q 147 0 121 0 q 96 0 79 17 q 62 34 62 59 z m 62 394 q 62 418 79 436 q 96 453 121 453 q 147 453 165 436 q 183 418 183 394 q 183 369 165 352 q 147 335 121 335 q 96 335 79 352 q 62 369 62 394 z"},"$":{"x_min":0,"x_max":538,"ha":538,"o":"m 234 -13 q 137 -13 50 19 l 70 100 q 154 67 231 67 q 270 67 302 72 q 335 76 359 86 q 383 97 396 115 q 410 133 410 161 q 410 198 384 224 q 357 250 318 272 q 279 294 232 316 q 186 337 147 364 q 108 391 82 428 q 55 465 55 519 q 55 585 103 632 q 151 678 234 689 l 234 782 l 304 782 l 304 690 q 379 687 452 671 l 442 588 q 357 611 278 611 q 204 611 172 589 q 140 567 140 519 q 140 484 166 458 q 193 433 232 411 q 271 389 318 368 q 364 347 403 320 q 442 293 468 258 q 495 222 495 172 q 495 127 478 96 q 462 65 435 44 q 408 24 374 12 q 340 -1 304 -8 l 304 -101 l 234 -101 z"},"?":{"x_min":0,"x_max":408,"ha":408,"o":"m 84 308 q 84 341 99 360 q 114 380 134 392 q 155 405 180 416 q 204 428 226 444 q 247 459 261 482 q 275 506 275 544 q 275 595 243 624 q 211 653 157 653 q 142 653 128 651 q 115 649 80 638 l 60 715 q 102 728 121 730 q 140 733 164 733 q 207 733 244 720 q 280 707 307 684 q 334 661 350 628 q 365 594 365 554 q 365 505 350 473 q 335 441 313 420 q 291 398 264 384 q 238 369 216 358 q 194 346 179 334 q 164 321 164 300 l 164 182 l 84 182 z m 64 59 q 64 83 81 100 q 98 118 123 118 q 149 118 167 100 q 185 83 185 59 q 185 34 167 17 q 149 0 123 0 q 98 0 81 17 q 64 34 64 59 z"},"<":{"x_min":0,"x_max":481,"ha":481,"o":"m 41 290 l 41 331 l 414 506 l 414 430 l 155 305 l 414 170 l 414 84 z"},"'":{"x_min":0,"x_max":200,"ha":200,"o":"m 60 758 l 140 758 l 140 513 l 60 513 z"},"=":{"x_min":0,"x_max":578,"ha":578,"o":"m 69 220 l 509 220 l 509 150 l 69 150 z m 69 425 l 509 425 l 509 355 l 69 355 z"},"a":{"x_min":0,"x_max":501,"ha":501,"o":"m 352 231 q 332 230 314 229 q 296 228 278 226 q 261 225 247 223 q 175 214 145 192 q 115 169 115 127 q 115 92 136 74 q 158 57 193 57 q 241 57 278 74 q 316 90 352 117 z m 351 47 q 304 20 264 4 q 223 -13 176 -13 q 109 -13 70 20 q 30 52 30 127 q 30 166 50 195 q 70 224 102 244 q 135 263 176 274 q 217 285 260 288 q 278 290 307 292 q 336 293 352 294 q 352 329 350 356 q 348 384 338 404 q 328 423 308 433 q 289 443 253 443 q 224 443 197 440 q 170 436 149 432 q 124 427 103 421 l 87 490 q 112 496 141 501 q 166 506 199 510 q 232 513 270 513 q 321 513 352 498 q 384 483 402 458 q 419 432 426 400 q 432 367 432 331 l 432 91 q 432 77 432 62 q 433 46 434 31 q 436 16 438 0 l 361 -8 z"},"L":{"x_min":0,"x_max":499,"ha":499,"o":"m 88 682 l 172 682 l 172 80 l 482 80 l 482 0 l 88 0 z"},"3":{"x_min":0,"x_max":455,"ha":455,"o":"m 45 -92 q 64 -101 82 -108 q 99 -114 116 -118 q 132 -121 150 -123 q 167 -125 187 -125 q 213 -125 237 -117 q 261 -109 279 -93 q 297 -77 308 -52 q 319 -28 319 5 q 319 71 266 107 q 212 143 125 144 l 125 214 q 210 214 260 250 q 311 286 311 355 q 311 374 306 390 q 302 406 290 418 q 279 430 260 436 q 241 443 212 443 q 188 443 166 440 q 145 437 128 434 q 109 430 91 426 l 71 491 q 90 497 114 502 q 134 506 162 510 q 190 513 223 513 q 301 513 348 476 q 396 438 396 356 q 396 316 383 286 q 370 257 352 236 q 333 215 312 202 q 290 190 272 184 l 272 181 q 297 172 321 157 q 345 142 364 120 q 382 98 393 70 q 404 41 404 5 q 404 -54 382 -92 q 361 -131 329 -154 q 297 -177 258 -186 q 220 -195 187 -195 q 149 -195 118 -190 q 88 -184 66 -177 q 40 -169 20 -159 z"},";":{"x_min":0,"x_max":251,"ha":251,"o":"m 74 395 q 74 419 91 436 q 108 454 133 454 q 159 454 177 436 q 195 419 195 395 q 195 370 177 353 q 159 336 133 336 q 108 336 91 353 q 74 370 74 395 z m 82 119 l 167 119 l 111 -139 l 48 -127 z"},"J":{"x_min":0,"x_max":325,"ha":325,"o":"m 241 682 l 241 213 q 241 154 230 112 q 220 71 188 46 q 165 28 128 12 q 92 -5 32 -13 l 21 58 q 68 66 96 78 q 123 91 136 109 q 150 127 154 153 q 157 179 157 214 l 157 682 z"},"V":{"x_min":0,"x_max":596,"ha":596,"o":"m 18 682 l 103 682 l 299 80 l 300 80 l 493 682 l 578 682 l 351 0 l 245 0 z"},"\"":{"x_min":0,"x_max":340,"ha":340,"o":"m 200 758 l 280 758 l 280 513 l 200 513 z m 60 758 l 140 758 l 140 513 l 60 513 z"},"7":{"x_min":0,"x_max":441,"ha":441,"o":"m 40 503 l 431 503 l 431 465 l 271 81 q 253 38 234 0 q 214 -38 192 -73 q 170 -108 144 -141 q 119 -174 89 -207 l 30 -154 q 63 -116 88 -82 q 114 -47 134 -13 q 155 21 172 56 q 189 90 204 127 l 331 433 l 40 433 z"},"S":{"x_min":0,"x_max":526,"ha":526,"o":"m 437 588 q 413 594 387 599 q 364 604 334 608 q 305 611 273 611 q 199 611 167 588 q 135 566 135 519 q 136 482 162 456 q 188 431 227 410 q 266 388 312 368 q 359 347 398 320 q 437 294 464 258 q 490 223 490 172 q 490 113 464 77 q 439 41 400 21 q 361 1 314 -6 q 268 -13 226 -13 q 186 -13 153 -8 q 120 -3 96 3 q 68 10 45 19 l 65 100 q 88 90 114 83 q 137 77 166 72 q 194 67 226 67 q 265 67 298 72 q 330 77 354 88 q 378 99 392 117 q 405 135 405 161 q 404 200 380 224 q 355 249 314 272 q 274 294 228 315 q 181 336 142 363 q 103 390 76 427 q 50 464 50 519 q 50 551 61 582 q 72 613 98 637 q 125 661 168 676 q 210 691 273 691 q 309 691 342 688 q 374 684 398 680 q 426 675 451 669 z"},"}":{"x_min":0,"x_max":325,"ha":325,"o":"m 206 130 q 206 102 207 80 q 208 57 210 34 q 211 12 212 -14 q 213 -39 213 -72 q 213 -106 195 -131 q 177 -156 150 -173 q 124 -190 94 -201 q 63 -212 38 -217 l 24 -147 q 54 -140 79 -128 q 99 -117 116 -100 q 134 -82 134 -55 q 134 -14 130 30 q 127 73 127 136 q 127 196 144 234 q 162 273 210 287 q 164 300 145 344 q 126 389 127 449 q 127 512 130 556 q 134 599 134 640 q 134 666 118 684 q 101 702 79 713 q 54 725 24 732 l 38 802 q 63 796 94 786 q 124 775 150 758 q 177 741 195 716 q 213 691 213 657 q 213 624 212 598 q 211 573 210 550 q 208 528 207 506 q 206 483 206 455 q 206 419 213 398 q 220 376 233 362 q 246 349 262 341 q 279 333 299 325 l 299 250 q 284 244 267 236 q 250 227 237 214 q 224 202 215 182 q 206 161 206 130 z"},"Z":{"x_min":0,"x_max":588,"ha":588,"o":"m 36 36 l 422 602 l 36 602 l 36 682 l 556 682 l 556 648 l 167 80 l 547 80 l 547 0 l 36 0 z"},"x":{"x_min":0,"x_max":514,"ha":514,"o":"m 204 264 l 18 503 l 112 503 l 259 317 l 398 503 l 488 503 l 313 267 l 505 0 l 411 0 l 258 213 l 103 0 l 13 0 z"},")":{"x_min":0,"x_max":335,"ha":335,"o":"m 14 -216 q 72 -158 108 -96 q 145 -35 166 28 q 187 90 194 151 q 202 212 202 270 q 202 328 194 389 q 187 450 166 512 q 145 574 108 636 q 72 697 14 754 l 62 800 q 107 764 149 716 q 191 668 224 604 q 256 540 276 458 q 296 376 296 271 q 296 166 276 84 q 256 1 224 -64 q 191 -128 149 -177 q 107 -226 62 -262 z"},"&":{"x_min":0,"x_max":699,"ha":699,"o":"m 652 -21 q 617 6 582 36 q 546 66 510 98 q 463 49 400 18 q 338 -13 257 -13 q 213 -13 176 -2 q 139 9 112 30 q 85 52 70 85 q 54 118 54 162 q 54 206 72 240 q 89 275 115 302 q 141 329 170 350 q 199 370 223 385 q 205 407 185 430 q 165 453 148 478 q 132 504 122 533 q 111 562 111 596 q 111 624 122 652 q 132 680 154 702 q 177 724 214 738 q 250 752 303 752 q 357 752 392 740 q 428 727 449 706 q 470 685 478 656 q 487 628 487 596 q 487 560 472 528 q 457 495 434 467 q 410 439 382 416 q 354 393 328 376 q 376 325 418 282 q 461 240 501 203 q 528 243 548 287 q 568 331 582 373 l 648 351 q 634 304 612 253 q 589 202 555 154 q 592 121 626 90 q 661 60 696 28 z m 257 57 q 317 57 366 82 q 416 106 455 147 q 405 192 358 239 q 310 286 268 334 q 243 317 219 299 q 195 281 176 260 q 157 239 146 214 q 134 189 134 159 q 134 141 142 122 q 149 104 164 90 q 180 75 203 66 q 226 57 257 57 z m 191 596 q 191 572 197 552 q 203 532 214 512 q 226 492 244 470 q 262 449 286 421 q 310 437 332 456 q 353 476 370 498 q 387 520 397 544 q 407 568 407 594 q 407 636 386 659 q 364 682 303 682 q 247 682 219 659 q 191 636 191 596 z"},"_":{"x_min":0,"x_max":559,"ha":559,"o":"m 59 -66 l 500 -66 l 500 -126 l 59 -126 z"},"v":{"x_min":0,"x_max":489,"ha":489,"o":"m 10 503 l 98 503 l 220 148 l 242 69 l 243 69 l 266 148 l 396 503 l 480 503 l 285 0 l 195 0 z"},"O":{"x_min":0,"x_max":760,"ha":760,"o":"m 51 341 q 51 438 82 505 q 112 572 160 613 q 207 654 266 672 q 324 691 380 691 q 436 691 494 676 q 553 660 600 620 q 648 581 678 513 q 709 445 709 340 q 709 242 678 175 q 648 108 600 66 q 553 24 494 6 q 436 -13 380 -13 q 324 -13 266 5 q 207 23 160 64 q 112 105 82 173 q 51 241 51 341 z m 614 336 q 614 471 552 541 q 489 611 384 611 q 331 611 288 594 q 244 578 212 545 q 181 512 164 462 q 146 413 146 346 q 146 211 208 139 q 271 67 376 67 q 428 67 472 84 q 516 100 548 134 q 579 168 596 218 q 614 268 614 336 z"},"(":{"x_min":0,"x_max":335,"ha":335,"o":"m 273 -262 q 228 -226 186 -177 q 144 -128 112 -64 q 79 1 59 84 q 39 166 39 271 q 39 376 59 458 q 79 540 112 604 q 144 668 186 716 q 228 764 273 800 l 321 754 q 263 697 226 636 q 190 574 169 512 q 148 450 140 389 q 133 328 133 270 q 133 212 140 151 q 148 90 169 28 q 190 -35 226 -96 q 263 -158 321 -216 z"},"C":{"x_min":0,"x_max":607,"ha":607,"o":"m 552 586 q 527 594 499 600 q 471 607 438 612 q 404 616 367 616 q 307 616 265 590 q 223 564 196 524 q 170 483 158 433 q 146 383 146 334 q 146 272 164 222 q 181 171 212 136 q 242 100 282 81 q 323 62 368 62 q 410 62 445 66 q 480 71 505 76 q 534 82 557 90 l 574 19 q 547 10 514 3 q 486 -3 449 -8 q 412 -13 368 -13 q 289 -13 230 13 q 170 39 130 86 q 91 132 71 196 q 51 259 51 335 q 51 422 75 488 q 99 555 141 600 q 183 645 241 668 q 299 691 368 691 q 410 691 446 686 q 483 682 514 675 q 544 668 570 660 z"},"W":{"x_min":0,"x_max":946,"ha":946,"o":"m 28 682 l 113 682 l 245 80 l 246 80 l 421 682 l 527 682 l 700 80 l 701 80 l 832 682 l 917 682 l 760 0 l 654 0 l 474 601 l 473 601 l 292 0 l 186 0 z"},"A":{"x_min":0,"x_max":610,"ha":610,"o":"m 253 682 l 357 682 l 591 0 l 504 0 l 444 182 l 167 182 l 106 0 l 19 0 z m 417 262 l 307 602 l 304 602 l 193 262 z"},"f":{"x_min":0,"x_max":340,"ha":340,"o":"m 115 438 l 22 438 l 22 503 l 115 503 q 115 573 124 622 q 134 670 155 700 q 176 731 209 744 q 242 758 289 758 q 327 758 360 746 q 393 733 413 715 l 378 655 q 358 670 336 679 q 315 688 290 688 q 257 688 238 674 q 219 659 210 634 q 200 609 198 576 q 195 542 195 503 l 320 503 l 320 438 l 195 438 l 195 0 l 115 0 z"},"Q":{"x_min":0,"x_max":759,"ha":759,"o":"m 614 336 q 614 471 552 541 q 489 611 384 611 q 331 611 288 594 q 244 578 212 545 q 181 512 164 462 q 146 413 146 346 q 146 211 208 139 q 271 67 376 67 q 428 67 472 84 q 516 100 548 134 q 579 168 596 218 q 614 268 614 336 z m 424 -11 q 411 -13 403 -13 q 395 -13 383 -13 q 330 -13 272 3 q 213 19 164 59 q 115 99 83 168 q 51 236 51 341 q 51 438 81 505 q 111 572 159 613 q 207 654 266 672 q 325 691 383 691 q 440 691 498 676 q 556 660 603 620 q 650 580 680 512 q 709 445 709 340 q 709 272 693 220 q 677 167 651 128 q 625 88 591 62 q 557 35 521 19 q 537 10 560 -5 q 583 -20 608 -34 q 633 -49 657 -59 q 681 -69 700 -69 q 718 -69 738 -63 q 757 -57 774 -46 l 811 -111 q 788 -125 758 -137 q 729 -149 696 -149 q 673 -149 643 -138 q 613 -126 578 -107 q 543 -88 504 -63 q 465 -38 424 -11 z"},"w":{"x_min":0,"x_max":750,"ha":750,"o":"m 18 503 l 102 503 l 161 276 q 169 247 176 214 q 182 182 188 154 q 194 121 201 89 l 202 89 q 209 121 218 154 q 226 182 235 214 q 244 247 253 276 l 324 503 l 431 503 l 488 276 q 495 247 502 214 q 510 182 515 154 q 521 121 527 89 l 528 89 q 537 122 547 155 q 555 183 565 216 q 575 248 584 276 l 654 503 l 737 503 l 572 0 l 483 0 l 411 276 q 401 314 394 344 q 388 375 383 396 q 378 421 374 440 l 372 440 q 368 421 362 396 q 357 375 348 344 q 339 314 328 276 l 243 0 l 154 0 z"},"-":{"x_min":0,"x_max":391,"ha":391,"o":"m 62 294 l 329 294 l 329 220 l 62 220 z"},"E":{"x_min":0,"x_max":564,"ha":564,"o":"m 88 682 l 506 682 l 506 605 l 172 605 l 172 387 l 482 387 l 482 312 l 172 312 l 172 77 l 516 77 l 516 0 l 88 0 z"},"s":{"x_min":0,"x_max":417,"ha":417,"o":"m 344 421 q 302 434 270 438 q 237 443 210 443 q 175 443 152 426 q 128 409 128 382 q 129 358 149 341 q 169 324 196 310 q 222 297 254 281 q 287 265 316 245 q 344 225 362 197 q 380 169 381 130 q 380 88 362 60 q 345 33 318 16 q 290 0 258 -6 q 226 -13 198 -13 q 162 -13 124 -9 q 85 -5 41 8 l 56 80 q 101 68 138 62 q 175 57 199 57 q 217 57 234 61 q 252 65 266 72 q 280 80 288 92 q 297 104 297 119 q 296 147 278 166 q 260 186 232 202 q 203 217 170 232 q 138 248 110 268 q 81 289 62 318 q 43 346 43 388 q 43 418 58 442 q 74 465 98 480 q 123 496 152 504 q 182 513 210 513 q 239 513 275 508 q 311 504 358 492 z"},">":{"x_min":0,"x_max":481,"ha":481,"o":"m 67 170 l 326 305 l 67 430 l 67 506 l 440 331 l 440 290 l 67 84 z"},"l":{"x_min":0,"x_max":224,"ha":224,"o":"m 72 749 l 152 758 l 152 0 l 72 0 z"},"8":{"x_min":0,"x_max":550,"ha":550,"o":"m 273 -13 q 229 -13 190 -4 q 152 6 123 28 q 94 50 77 86 q 60 121 60 173 q 60 210 73 240 q 86 269 104 292 q 123 314 145 330 q 167 347 185 359 q 137 385 108 422 q 80 458 80 510 q 80 556 98 590 q 116 625 144 647 q 173 669 208 680 q 243 691 278 691 q 322 691 358 678 q 395 666 421 642 q 447 619 462 586 q 476 552 476 510 q 476 484 468 460 q 459 437 446 416 q 432 395 414 377 q 397 359 379 344 q 401 332 422 318 q 443 304 460 284 q 476 265 486 238 q 496 210 496 173 q 496 120 478 84 q 459 49 428 27 q 397 5 356 -4 q 316 -13 273 -13 z m 314 376 q 327 388 341 401 q 355 414 366 430 q 377 446 384 466 q 391 485 391 510 q 391 531 386 551 q 380 571 367 586 q 354 602 332 612 q 310 621 278 621 q 250 621 229 611 q 208 601 194 586 q 179 570 172 550 q 165 530 165 510 q 165 483 176 464 q 188 444 208 428 q 229 413 256 400 q 283 388 314 376 z m 145 173 q 145 122 176 90 q 208 57 274 57 q 340 57 376 89 q 411 121 411 173 q 411 202 400 223 q 388 244 367 260 q 346 277 316 292 q 285 307 247 323 q 228 311 210 297 q 193 283 178 265 q 163 247 154 224 q 145 202 145 173 z"},"\\":{"x_min":0,"x_max":508,"ha":508,"o":"m 29 823 l 104 849 l 479 -182 l 404 -208 z"},"e":{"x_min":0,"x_max":506,"ha":506,"o":"m 444 12 q 421 5 396 0 q 372 -5 342 -9 q 313 -13 281 -13 q 231 -13 188 1 q 145 15 113 46 q 81 77 62 126 q 44 176 44 248 q 44 313 62 362 q 80 412 112 446 q 143 479 186 496 q 228 513 278 513 q 327 513 363 494 q 399 475 422 442 q 446 410 458 366 q 469 323 469 275 l 454 231 l 131 231 q 131 200 139 169 q 147 138 166 113 q 186 88 218 72 q 249 57 296 57 q 326 57 351 60 q 376 64 394 68 q 413 73 429 79 z m 386 295 q 386 302 383 326 q 380 350 369 376 q 358 402 335 422 q 312 443 274 443 q 232 443 205 426 q 178 408 162 384 q 146 360 140 335 q 134 310 134 295 z"},"b":{"x_min":0,"x_max":538,"ha":538,"o":"m 71 749 l 151 758 l 151 460 q 173 475 197 486 q 217 496 242 504 q 267 513 292 513 q 333 513 370 497 q 406 481 434 449 q 461 417 477 368 q 493 319 493 252 q 493 178 472 128 q 452 77 418 46 q 383 15 339 1 q 295 -13 249 -13 q 203 -13 170 -6 q 136 0 114 8 q 88 18 71 30 z m 151 74 q 164 69 179 66 q 194 62 212 60 q 229 57 249 57 q 295 57 326 70 q 357 83 375 108 q 393 133 400 168 q 408 204 408 248 q 408 283 400 318 q 393 353 377 380 q 361 408 338 426 q 314 443 283 443 q 262 443 239 434 q 216 426 196 415 q 173 403 151 388 z"},"%":{"x_min":0,"x_max":765,"ha":765,"o":"m 46 540 q 46 560 52 588 q 58 617 75 642 q 92 668 122 686 q 153 704 201 704 q 247 704 276 686 q 305 667 320 641 q 336 615 342 587 q 347 559 347 540 q 347 521 342 493 q 336 465 320 439 q 305 413 276 394 q 247 376 201 376 q 153 376 122 394 q 92 412 75 438 q 58 463 52 492 q 46 520 46 540 z m 275 540 q 275 557 272 574 q 269 592 261 606 q 253 621 237 630 q 221 640 196 640 q 173 640 158 630 q 143 621 134 606 q 125 592 121 574 q 117 557 117 540 q 117 523 121 506 q 125 488 134 474 q 143 459 158 450 q 173 440 196 440 q 221 440 237 450 q 253 459 261 474 q 269 488 272 506 q 275 523 275 540 z m 420 151 q 420 171 426 200 q 432 228 449 254 q 466 279 496 297 q 527 315 575 315 q 621 315 650 296 q 679 278 694 252 q 710 226 716 198 q 721 170 721 151 q 721 132 716 104 q 710 76 694 50 q 679 24 650 6 q 621 -13 575 -13 q 527 -13 496 5 q 466 23 449 48 q 432 74 426 102 q 420 131 420 151 z m 649 151 q 649 168 646 186 q 643 203 635 218 q 627 232 611 242 q 595 251 570 251 q 547 251 532 242 q 517 232 508 218 q 499 203 495 186 q 491 168 491 151 q 491 134 495 116 q 499 99 508 84 q 517 70 532 60 q 547 51 570 51 q 595 51 611 60 q 627 70 635 84 q 643 99 646 116 q 649 134 649 151 z m 602 743 l 666 695 l 147 -45 l 83 2 z"},"m":{"x_min":0,"x_max":827,"ha":827,"o":"m 73 412 q 73 446 67 494 l 142 504 l 153 441 q 180 461 206 476 q 232 491 262 502 q 292 513 323 513 q 373 513 402 496 q 431 478 445 436 q 486 465 530 489 q 575 513 623 513 q 660 513 686 504 q 712 494 728 472 q 744 450 751 414 q 758 378 758 324 l 758 0 l 678 0 l 678 315 q 678 345 677 368 q 676 392 670 408 q 664 425 650 434 q 637 443 612 443 q 589 443 568 436 q 548 430 526 418 q 504 406 458 369 l 458 0 l 378 0 l 378 315 q 378 345 377 368 q 376 392 370 408 q 364 425 350 434 q 337 443 312 443 q 286 443 258 432 q 230 421 205 406 q 180 391 153 371 l 153 0 l 73 0 z"},"#":{"x_min":0,"x_max":572,"ha":572,"o":"m 114 229 l 56 229 l 56 299 l 138 299 l 163 373 l 73 373 l 73 443 l 187 443 l 232 572 l 302 549 l 265 443 l 386 443 l 432 577 l 502 554 l 463 443 l 522 443 l 522 373 l 439 373 l 414 299 l 483 299 l 483 229 l 390 229 l 341 87 l 273 114 l 312 229 l 191 229 l 141 82 l 73 109 z m 336 299 l 362 373 l 241 373 l 215 299 z"},",":{"x_min":0,"x_max":211,"ha":211,"o":"m 71 130 l 156 130 l 100 -128 l 37 -116 z"},"n":{"x_min":0,"x_max":547,"ha":547,"o":"m 73 403 q 74 424 68 494 l 142 504 l 153 440 q 183 460 212 475 q 242 490 273 502 q 304 513 333 513 q 374 513 402 504 q 429 494 446 472 q 463 450 470 414 q 478 378 478 324 l 478 0 l 398 0 l 398 315 q 398 345 397 368 q 396 392 388 408 q 381 425 366 434 q 350 443 322 443 q 296 443 267 432 q 238 420 210 405 q 182 390 153 370 l 153 0 l 73 0 z"},"h":{"x_min":0,"x_max":546,"ha":546,"o":"m 72 749 l 152 758 l 152 440 q 182 460 212 475 q 241 490 272 502 q 303 513 332 513 q 373 513 400 504 q 428 494 445 472 q 462 450 470 414 q 477 378 477 324 l 477 0 l 397 0 l 397 315 q 397 345 396 368 q 395 392 388 408 q 380 425 364 434 q 349 443 321 443 q 295 443 265 432 q 235 420 208 405 q 181 390 152 370 l 152 0 l 72 0 z"},"z":{"x_min":0,"x_max":460,"ha":460,"o":"m 24 31 l 311 441 q 269 438 252 438 q 234 437 212 437 l 49 437 l 49 503 l 424 503 l 424 468 l 142 63 q 178 65 190 66 q 202 66 213 66 l 423 66 l 423 0 l 24 0 z"},"B":{"x_min":0,"x_max":575,"ha":575,"o":"m 88 682 l 270 682 q 378 682 426 642 q 475 602 475 520 q 475 482 464 454 q 454 426 441 407 q 426 385 408 369 q 432 360 453 346 q 474 332 490 312 q 506 292 516 264 q 525 237 525 200 q 525 159 514 122 q 503 86 477 59 q 451 32 408 16 q 365 0 301 0 l 88 0 z m 172 386 l 339 386 q 353 397 364 415 q 374 430 382 452 q 390 475 390 507 q 390 566 360 586 q 329 607 274 607 l 172 607 z m 172 75 l 308 75 q 374 75 407 109 q 440 143 440 200 q 440 225 434 246 q 427 267 411 282 q 395 298 368 307 q 341 316 301 316 l 172 316 z"},"K":{"x_min":0,"x_max":596,"ha":596,"o":"m 88 682 l 172 682 l 172 367 l 458 682 l 563 682 l 301 396 l 603 0 l 498 0 l 243 334 l 172 256 l 172 0 l 88 0 z"},"R":{"x_min":0,"x_max":579,"ha":579,"o":"m 88 682 l 256 682 q 311 682 356 672 q 402 663 434 640 q 466 618 483 581 q 500 544 500 488 q 499 426 479 388 q 459 349 430 326 q 401 302 363 291 l 363 289 q 367 285 376 274 q 384 264 390 256 l 583 0 l 484 0 l 286 271 l 172 271 l 172 0 l 88 0 z m 415 474 q 415 516 404 542 q 394 569 374 583 q 353 597 323 602 q 293 607 255 607 l 172 607 l 172 346 l 271 346 q 310 346 337 356 q 364 366 381 384 q 398 401 406 424 q 414 447 415 474 z"},"T":{"x_min":0,"x_max":546,"ha":546,"o":"m 231 604 l 17 604 l 17 682 l 529 682 l 529 604 l 315 604 l 315 0 l 231 0 z"},"P":{"x_min":0,"x_max":540,"ha":540,"o":"m 88 682 l 245 682 q 375 682 438 636 q 500 590 500 481 q 500 421 477 381 q 454 341 420 316 q 385 292 345 282 q 305 271 271 271 l 172 271 l 172 0 l 88 0 z m 172 346 l 264 346 q 298 346 326 352 q 353 359 373 374 q 393 390 404 416 q 415 443 415 483 q 415 523 404 548 q 392 572 370 585 q 347 598 313 602 q 279 607 234 607 l 172 607 z"},"|":{"x_min":0,"x_max":230,"ha":230,"o":"m 75 758 l 155 758 l 155 -228 l 75 -228 z"},"t":{"x_min":0,"x_max":364,"ha":364,"o":"m 189 653 l 189 503 l 334 503 l 334 438 l 189 438 l 189 171 q 189 138 190 116 q 192 94 197 81 q 202 68 211 62 q 220 57 234 57 q 272 58 322 85 l 346 24 q 313 2 284 -6 q 256 -13 228 -13 q 162 -13 136 24 q 109 62 109 149 l 109 438 l 17 438 l 17 503 l 109 503 l 109 643 z"},"M":{"x_min":0,"x_max":858,"ha":858,"o":"m 107 682 l 214 682 l 368 276 q 381 241 392 212 q 403 182 411 159 q 421 133 428 111 l 430 111 q 436 133 445 159 q 453 182 463 212 q 473 241 487 276 l 644 682 l 751 682 l 786 0 l 701 0 l 684 375 q 682 424 681 458 q 680 492 680 514 l 680 556 l 678 556 q 672 541 663 515 q 655 493 642 458 q 630 424 612 375 l 471 0 l 386 0 l 244 375 q 225 423 213 458 q 201 492 193 514 q 184 540 179 556 l 177 556 q 178 540 179 514 q 180 472 176 375 l 156 0 l 71 0 z"},"g":{"x_min":0,"x_max":538,"ha":538,"o":"m 466 -48 q 466 -85 458 -120 q 450 -155 428 -182 q 405 -210 364 -226 q 324 -243 258 -243 q 216 -242 185 -238 q 154 -234 126 -226 q 98 -219 75 -209 l 96 -139 q 135 -156 176 -165 q 216 -174 248 -174 q 283 -174 309 -167 q 335 -160 352 -144 q 370 -127 378 -100 q 387 -73 387 -33 l 387 40 q 366 26 344 14 q 321 3 296 -5 q 270 -13 246 -13 q 153 -13 99 52 q 45 118 45 248 q 45 323 68 374 q 92 424 128 455 q 164 486 207 500 q 250 513 289 513 q 340 513 382 504 q 425 496 466 491 z m 255 57 q 277 57 300 65 q 323 73 344 84 q 366 95 387 110 l 387 429 q 375 432 359 436 q 345 438 327 440 q 309 443 289 443 q 247 443 217 428 q 187 413 168 387 q 148 361 139 326 q 130 291 130 252 q 130 217 138 182 q 145 147 161 119 q 177 91 200 74 q 223 57 255 57 z"},"j":{"x_min":0,"x_max":224,"ha":224,"o":"m 152 514 l 152 9 q 152 -81 119 -140 q 86 -198 16 -238 l -25 -167 q 5 -149 24 -128 q 43 -106 54 -82 q 64 -57 68 -32 q 72 -6 72 20 l 72 502 z m 56 647 q 56 670 72 686 q 87 701 110 701 q 134 701 150 686 q 167 670 167 647 q 167 624 150 608 q 134 593 110 593 q 87 593 72 608 q 56 624 56 647 z"},"i":{"x_min":0,"x_max":224,"ha":224,"o":"m 72 504 l 152 513 l 152 0 l 72 0 z m 59 647 q 59 670 74 686 q 90 701 113 701 q 137 701 154 686 q 170 670 170 647 q 170 624 154 608 q 137 593 113 593 q 90 593 74 608 q 59 624 59 647 z"},"y":{"x_min":0,"x_max":497,"ha":497,"o":"m 7 503 l 92 503 l 186 276 q 200 243 212 210 q 223 177 232 151 q 243 120 251 91 l 252 91 q 261 120 272 151 q 281 177 293 210 q 305 243 318 276 l 405 503 l 489 503 l 251 -97 q 237 -134 214 -161 q 192 -188 171 -206 q 146 -227 119 -242 l 80 -173 q 101 -163 119 -148 q 135 -135 151 -116 q 167 -96 177 -69 l 208 13 z"},"@":{"x_min":0,"x_max":853,"ha":853,"o":"m 515 438 q 507 440 497 442 q 487 443 476 444 q 464 445 452 445 q 427 445 403 434 q 379 423 360 400 q 340 378 328 343 q 316 308 316 261 q 316 250 318 238 q 319 226 322 216 q 325 205 330 198 q 335 192 342 192 q 347 192 360 202 q 374 211 391 226 q 408 242 427 262 q 446 283 462 304 q 478 325 490 346 q 502 367 505 384 z m 567 297 q 564 280 565 262 q 566 244 569 229 q 572 214 576 204 q 579 195 582 195 q 611 195 639 206 q 667 216 690 238 q 712 260 726 294 q 739 327 739 373 q 739 440 720 487 q 701 534 664 564 q 628 594 576 608 q 523 621 456 621 q 393 621 333 598 q 273 576 227 533 q 181 490 153 426 q 125 363 125 281 q 125 132 198 66 q 270 0 416 0 q 451 0 478 4 q 506 9 526 14 q 549 20 566 28 l 586 -38 q 561 -47 531 -53 q 505 -59 470 -64 q 434 -68 392 -68 q 313 -68 250 -47 q 188 -26 144 16 q 101 59 78 125 q 55 191 55 281 q 55 378 88 454 q 122 531 178 584 q 233 636 306 664 q 378 691 456 691 q 534 691 599 674 q 664 657 710 620 q 757 582 783 521 q 809 460 809 373 q 809 325 794 280 q 780 234 748 198 q 716 163 666 142 q 615 120 543 120 q 539 120 532 128 q 525 137 519 155 q 513 173 508 200 q 504 228 505 266 l 503 266 q 451 199 407 162 q 363 125 324 125 q 279 125 258 158 q 237 191 237 245 q 237 304 254 354 q 272 403 304 438 q 335 474 378 494 q 422 513 474 513 q 488 513 508 510 q 529 508 597 497 z"},".":{"x_min":0,"x_max":222,"ha":222,"o":"m 51 59 q 51 83 68 100 q 85 118 110 118 q 136 118 154 100 q 172 83 172 59 q 172 34 154 17 q 136 0 110 0 q 85 0 68 17 q 51 34 51 59 z"},"p":{"x_min":0,"x_max":540,"ha":540,"o":"m 73 387 q 73 423 68 494 l 142 504 l 151 450 q 171 467 192 480 q 214 494 240 504 q 265 513 294 513 q 335 513 372 499 q 408 485 436 454 q 463 423 479 374 q 495 324 495 252 q 495 179 474 128 q 452 78 418 46 q 383 15 340 1 q 296 -13 251 -13 q 203 -12 153 -1 l 153 -218 l 73 -228 z m 251 57 q 293 57 323 72 q 353 87 372 114 q 392 140 401 174 q 410 209 410 248 q 410 283 404 318 q 397 353 382 380 q 368 408 344 426 q 320 443 285 443 q 259 443 236 434 q 213 424 192 410 q 172 397 153 380 l 153 73 q 164 69 178 66 q 191 62 210 60 q 228 57 251 57 z"},"X":{"x_min":0,"x_max":551,"ha":551,"o":"m 217 347 l 20 682 l 115 682 l 276 405 l 436 682 l 531 682 l 329 339 l 532 0 l 435 0 l 271 285 l 115 0 l 20 0 z"},"*":{"x_min":0,"x_max":447,"ha":447,"o":"m 285 410 l 359 315 l 295 267 l 223 371 l 153 265 l 87 311 l 163 411 l 48 451 l 74 526 l 188 479 l 185 600 l 265 600 l 261 479 l 373 521 l 400 446 z"},"Y":{"x_min":0,"x_max":545,"ha":545,"o":"m 230 248 l 12 682 l 105 682 l 272 351 l 440 682 l 533 682 l 315 248 l 315 0 l 230 0 z"},"c":{"x_min":0,"x_max":437,"ha":437,"o":"m 384 430 q 367 434 337 438 q 307 443 276 443 q 231 443 202 425 q 174 407 158 378 q 142 350 136 316 q 130 281 130 248 q 130 197 143 160 q 156 124 178 101 q 199 78 227 68 q 255 57 286 57 q 307 57 326 60 q 346 62 362 66 q 379 69 394 74 l 410 7 q 389 1 371 -3 q 353 -7 328 -10 q 304 -13 276 -13 q 221 -13 178 1 q 135 15 106 46 q 76 77 60 127 q 45 177 45 249 q 45 319 64 370 q 84 420 116 452 q 148 483 190 498 q 231 513 276 513 q 300 513 322 510 q 345 508 362 505 q 382 501 400 497 z"},"!":{"x_min":0,"x_max":249,"ha":249,"o":"m 73 728 l 175 739 l 158 182 l 93 182 z m 64 59 q 64 83 81 100 q 98 118 123 118 q 149 118 167 100 q 185 83 185 59 q 185 34 167 17 q 149 0 123 0 q 98 0 81 17 q 64 34 64 59 z"},"/":{"x_min":0,"x_max":510,"ha":510,"o":"m 405 850 l 480 822 l 105 -209 l 30 -181 z"},"[":{"x_min":0,"x_max":311,"ha":311,"o":"m 74 790 l 282 790 l 282 710 l 159 710 l 159 -172 l 282 -172 l 282 -252 l 74 -252 z"},"6":{"x_min":0,"x_max":525,"ha":525,"o":"m 459 620 q 325 578 251 520 q 177 461 150 387 l 185 390 q 201 392 221 393 q 241 394 264 394 q 303 394 342 384 q 381 373 412 350 q 442 326 462 288 q 481 250 481 194 q 481 146 464 108 q 446 70 416 43 q 386 16 346 2 q 305 -13 260 -13 q 160 -13 106 52 q 51 118 51 268 q 51 338 70 394 q 88 450 118 494 q 149 537 188 570 q 228 602 270 626 q 313 649 356 665 q 398 681 434 691 z m 266 57 q 290 57 314 64 q 337 71 356 87 q 374 103 385 128 q 396 154 396 192 q 396 257 360 290 q 324 324 252 324 q 229 324 208 323 q 188 322 140 317 q 135 271 136 259 q 139 154 170 106 q 201 57 266 57 z"},"r":{"x_min":0,"x_max":337,"ha":337,"o":"m 73 422 q 73 445 68 494 l 142 504 l 150 431 l 151 431 q 169 454 186 471 q 203 488 222 500 q 240 513 257 513 q 280 514 321 508 l 303 431 q 270 437 257 436 q 240 436 221 420 q 202 404 188 386 q 170 364 153 336 l 153 0 l 73 0 z"},"2":{"x_min":0,"x_max":486,"ha":486,"o":"m 43 38 q 125 103 190 165 q 218 191 244 219 q 271 247 292 274 q 313 301 326 326 q 338 350 338 370 q 338 402 318 422 q 297 443 237 443 q 206 443 177 438 q 148 433 125 428 q 98 421 73 413 l 49 477 q 75 487 108 495 q 135 502 172 508 q 208 513 249 513 q 282 513 314 506 q 345 500 370 484 q 394 469 408 443 q 423 417 423 377 q 423 354 413 328 q 403 303 388 278 q 372 252 352 226 q 331 201 310 178 q 261 124 198 71 q 222 72 248 73 q 271 74 300 74 q 330 75 362 75 l 438 75 l 438 0 l 43 0 z"},"{":{"x_min":0,"x_max":325,"ha":325,"o":"m 119 130 q 119 161 110 182 q 101 202 88 215 q 74 228 58 236 q 41 244 26 250 l 26 325 q 45 332 62 340 q 79 349 92 362 q 105 376 112 398 q 119 419 119 455 q 119 483 118 506 q 117 528 116 550 q 114 573 113 598 q 112 624 112 657 q 112 691 130 716 q 148 741 174 758 q 201 775 232 786 q 262 796 287 802 l 301 732 q 270 725 247 713 q 225 702 208 684 q 191 666 191 640 q 191 599 194 556 q 198 512 198 449 q 199 389 181 346 q 163 302 115 287 q 163 273 180 234 q 198 196 198 136 q 198 73 194 30 q 191 -14 191 -55 q 192 -82 208 -100 q 225 -117 246 -128 q 270 -140 301 -147 l 287 -217 q 262 -211 232 -200 q 201 -190 174 -172 q 147 -155 130 -130 q 112 -106 112 -72 q 112 -39 113 -14 q 114 12 116 34 q 117 57 118 80 q 119 102 119 130 z"},"9":{"x_min":0,"x_max":513,"ha":513,"o":"m 62 -133 q 196 -88 270 -24 q 345 41 371 109 q 354 107 336 105 q 320 103 300 102 q 279 101 257 101 q 218 101 179 112 q 140 123 110 148 q 79 172 60 211 q 40 250 40 306 q 40 402 99 457 q 158 512 261 513 q 310 513 348 496 q 387 480 414 445 q 441 410 456 356 q 470 302 470 227 q 470 157 452 100 q 434 44 404 0 q 373 -45 334 -78 q 294 -111 252 -136 q 209 -160 166 -177 q 123 -194 86 -205 z m 254 443 q 230 443 206 436 q 183 428 165 412 q 147 397 136 371 q 125 345 125 308 q 125 243 161 207 q 197 171 269 171 q 292 171 312 172 q 332 173 348 175 q 366 177 382 180 q 383 185 384 193 q 385 200 385 210 q 385 221 385 236 q 381 443 254 443 z"}," ":{"x_min":0,"x_max":229,"ha":229,"o":""},"I":{"x_min":0,"x_max":260,"ha":260,"o":"m 88 682 l 172 682 l 172 0 l 88 0 z"},"H":{"x_min":0,"x_max":689,"ha":689,"o":"m 88 682 l 172 682 l 172 387 l 517 387 l 517 682 l 601 682 l 601 0 l 517 0 l 517 312 l 172 312 l 172 0 l 88 0 z"},"4":{"x_min":0,"x_max":574,"ha":574,"o":"m 118 66 q 153 67 189 68 q 220 69 256 70 q 292 70 326 70 l 388 70 l 388 175 q 388 229 388 271 q 389 313 390 342 q 391 376 393 402 z m 16 54 l 388 503 l 468 503 l 468 70 l 538 70 l 538 0 l 468 0 l 468 -195 l 388 -195 l 388 0 l 21 0 z"},"~":{"x_min":0,"x_max":557,"ha":557,"o":"m 509 282 q 480 257 453 242 q 426 228 391 228 q 360 228 335 236 q 310 245 286 256 q 262 267 237 276 q 212 285 182 285 q 159 284 138 274 q 118 264 84 242 l 50 299 q 76 318 110 336 q 144 354 182 355 q 212 355 237 346 q 262 337 286 326 q 310 315 335 306 q 360 298 391 298 q 413 298 436 312 q 459 326 473 338 z"},"D":{"x_min":0,"x_max":715,"ha":715,"o":"m 172 77 l 307 77 q 362 77 410 91 q 459 105 496 136 q 532 168 553 219 q 574 270 574 343 q 574 411 555 460 q 536 510 502 542 q 467 574 418 590 q 368 605 307 605 l 172 605 z m 88 682 l 307 682 q 388 682 454 662 q 519 642 566 600 q 613 558 638 494 q 664 430 664 343 q 664 255 636 190 q 608 126 560 84 q 512 41 447 20 q 382 0 307 0 l 88 0 z"},"^":{"x_min":0,"x_max":666,"ha":666,"o":"m 335 745 l 566 432 l 481 432 l 335 637 l 189 432 l 100 432 z"},"0":{"x_min":0,"x_max":604,"ha":604,"o":"m 134 250 q 134 214 145 180 q 156 147 178 122 q 200 97 231 82 q 262 67 303 67 q 343 67 374 82 q 405 97 426 122 q 448 147 459 180 q 470 214 470 250 q 470 287 459 320 q 448 354 426 379 q 405 404 374 418 q 343 433 303 433 q 262 433 231 418 q 200 404 178 379 q 156 354 145 320 q 134 287 134 250 z m 49 250 q 49 305 68 353 q 87 401 121 436 q 155 472 202 492 q 248 513 303 513 q 357 513 404 492 q 450 472 484 436 q 517 401 536 353 q 555 305 555 250 q 555 196 536 148 q 517 100 484 64 q 450 28 404 8 q 357 -13 303 -13 q 248 -13 202 8 q 155 28 121 64 q 87 100 68 148 q 49 196 49 250 z"},"F":{"x_min":0,"x_max":541,"ha":541,"o":"m 88 682 l 506 682 l 506 605 l 172 605 l 172 387 l 482 387 l 482 312 l 172 312 l 172 0 l 88 0 z"},"`":{"x_min":0,"x_max":424,"ha":424,"o":"m 100 710 l 152 771 l 324 646 l 290 601 z"},"k":{"x_min":0,"x_max":501,"ha":501,"o":"m 72 749 l 152 758 l 152 307 l 375 503 l 485 503 l 267 312 l 493 0 l 392 0 l 208 261 l 152 212 l 152 0 l 72 0 z"},"u":{"x_min":0,"x_max":526,"ha":526,"o":"m 373 55 l 371 55 q 362 48 345 36 q 328 25 306 14 q 284 3 258 -5 q 231 -13 204 -13 q 167 -13 141 -4 q 115 6 99 28 q 83 50 76 86 q 69 122 69 176 l 69 503 l 149 503 l 149 188 q 149 158 150 134 q 151 110 157 93 q 163 76 176 66 q 190 57 215 57 q 241 57 269 68 q 297 79 320 93 q 347 109 373 129 l 373 503 l 453 503 l 453 65 q 454 29 458 0 l 379 -8 z"},"]":{"x_min":0,"x_max":311,"ha":311,"o":"m 237 -252 l 29 -252 l 29 -172 l 152 -172 l 152 710 l 29 710 l 29 790 l 237 790 z"},"U":{"x_min":0,"x_max":716,"ha":716,"o":"m 167 682 l 167 256 q 167 199 184 162 q 200 126 227 105 q 254 84 288 76 q 323 68 359 68 q 395 68 429 76 q 463 84 490 105 q 517 126 533 162 q 549 199 549 256 l 549 682 l 633 682 l 633 235 q 633 183 614 138 q 594 93 558 60 q 522 26 471 7 q 420 -12 358 -12 q 225 -12 154 52 q 83 117 83 235 l 83 682 z"},"o":{"x_min":0,"x_max":574,"ha":574,"o":"m 129 249 q 129 152 172 104 q 216 57 290 57 q 363 57 404 104 q 445 151 445 245 q 445 345 402 394 q 358 443 283 443 q 208 443 168 394 q 129 346 129 249 z m 44 250 q 44 326 68 376 q 92 427 129 458 q 166 488 208 500 q 251 513 289 513 q 325 513 368 502 q 410 490 446 460 q 482 431 506 382 q 530 332 530 256 q 530 177 506 125 q 481 73 444 42 q 407 12 364 0 q 321 -13 284 -13 q 246 -13 204 -1 q 162 11 126 40 q 91 70 68 121 q 44 172 44 250 z"},"N":{"x_min":0,"x_max":690,"ha":690,"o":"m 88 682 l 168 682 l 526 141 l 528 141 q 526 170 525 203 q 523 231 522 268 q 522 304 522 342 l 522 682 l 602 682 l 602 0 l 522 0 l 164 543 l 162 543 q 163 513 165 480 q 166 451 167 415 q 168 379 168 341 l 168 0 l 88 0 z"},"+":{"x_min":0,"x_max":528,"ha":528,"o":"m 44 294 l 224 294 l 224 474 l 304 474 l 304 294 l 484 294 l 484 220 l 304 220 l 304 40 l 224 40 l 224 220 l 44 220 z"},"G":{"x_min":0,"x_max":692,"ha":692,"o":"m 607 586 q 563 595 514 603 q 464 611 399 613 q 333 612 285 593 q 237 574 206 538 q 176 503 161 454 q 146 405 146 346 q 146 270 166 216 q 185 162 220 128 q 254 93 300 77 q 346 61 399 61 q 433 61 460 65 q 488 69 508 74 q 529 80 546 87 l 546 270 l 421 270 l 421 345 l 631 345 l 631 46 q 596 23 534 4 q 473 -14 399 -13 q 331 -13 268 3 q 206 19 158 60 q 109 100 80 170 q 51 240 51 347 q 51 434 78 498 q 105 563 152 606 q 198 648 260 670 q 321 691 390 691 q 435 691 477 686 q 519 682 554 676 q 589 671 621 663 z"},"q":{"x_min":0,"x_max":537,"ha":537,"o":"m 386 40 q 357 19 318 3 q 278 -13 245 -13 q 204 -13 168 1 q 131 15 104 46 q 76 77 60 126 q 44 176 44 248 q 44 316 66 366 q 89 416 124 448 q 160 481 204 497 q 247 513 288 513 q 326 513 350 508 q 374 504 392 499 q 410 494 426 490 q 442 485 465 485 l 465 -219 l 386 -229 z m 254 57 q 276 57 299 65 q 322 73 343 84 q 364 95 386 110 l 386 429 q 377 432 364 436 q 353 438 334 440 q 315 443 288 443 q 246 443 216 428 q 186 413 166 386 q 147 360 138 326 q 129 291 129 252 q 129 217 136 182 q 144 147 160 119 q 176 91 199 74 q 222 57 254 57 z"},"d":{"x_min":0,"x_max":539,"ha":539,"o":"m 386 428 q 350 438 330 440 q 310 443 289 443 q 247 443 217 428 q 187 413 168 386 q 148 360 139 326 q 130 291 130 252 q 130 217 138 182 q 145 147 161 119 q 177 91 200 74 q 223 57 255 57 q 277 57 300 65 q 324 73 344 84 q 364 94 386 110 z m 387 40 q 364 24 342 14 q 321 3 296 -5 q 270 -13 246 -13 q 152 -13 98 54 q 45 120 45 248 q 45 324 70 375 q 94 426 131 456 q 168 487 210 500 q 253 513 289 513 q 307 513 327 510 q 347 508 386 498 l 386 749 l 466 758 l 466 91 q 466 77 466 62 q 467 46 468 31 q 470 16 472 0 l 395 -8 z"},"1":{"x_min":0,"x_max":330,"ha":330,"o":"m 168 411 l 37 386 l 21 454 l 199 503 l 248 503 l 248 0 l 168 0 z"},"5":{"x_min":0,"x_max":493,"ha":493,"o":"m 108 503 l 425 503 l 425 433 l 182 433 l 164 210 q 175 213 187 216 q 199 218 214 220 q 229 221 247 221 q 341 221 396 171 q 451 121 451 21 q 451 -44 431 -86 q 411 -128 378 -152 q 345 -176 304 -186 q 262 -195 219 -195 q 121 -193 27 -140 l 54 -73 q 150 -125 220 -125 q 298 -125 332 -88 q 366 -50 366 21 q 366 50 359 74 q 352 98 337 115 q 322 132 298 142 q 273 151 238 151 q 214 151 192 148 q 170 144 152 139 q 133 134 116 127 l 77 133 z"}}}
